<svg xmlns="http://www.w3.org/2000/svg" width="256" height="256"><path fill="#1976D2" fill-opacity=".016" fill-rule="evenodd" d="M0 128.004v128.004l128.25-.254 128.25-.254.254-127.75L257.008 0H0zm.485.496c0 70.4.119 99.053.265 63.672.146-35.38.146-92.98 0-128C.604 29.153.485 58.1.485 128.5"/><path fill="#1976D2" fill-opacity=".215" fill-rule="evenodd" d="M110.453 12.595c-1.003.418-.959 4.171.13 11.155.417 2.667.957 3.25 3.012 3.25 3.223 0 7.985-2.464 8.784-4.545 1.139-2.968.645-4.585-2.302-7.532-2.729-2.729-6.485-3.638-9.624-2.328m23.308 5.377c-3.608 5.772-3.666 6.008-1.732 7.043 1.569.84 2.128.738 2.593-.472.839-2.187 5.283-1.957 6.16.318.453 1.175 1.296 1.636 2.285 1.25 1.408-.549 1.419-1.294.111-7.361-1.24-5.745-1.771-6.75-3.57-6.75-1.499 0-3.2 1.737-5.847 5.972m13.337-1.823C144.773 22.82 147.046 29 151.826 29c3.081 0 6.36-4.472 6.92-9.438.458-4.068.297-4.562-1.488-4.562-1.536 0-2.149.874-2.63 3.75-.862 5.155-2.182 7.096-3.754 5.524-.946-.946-.937-2.119.04-5.382 1.025-3.419 1.01-4.325-.082-5.017-2.118-1.343-2.569-1.068-3.734 2.274m-48.031-1.19c-1.35.834-1.285 1.475 1.054 10.39.99 3.776 1.079 3.836 4.687 3.159 4.72-.885 5.232-1.241 4.507-3.13-.386-1.004-1.432-1.398-2.948-1.108-1.992.381-2.504-.102-3.353-3.16-.552-1.986-1.005-4.146-1.008-4.801-.008-1.691-1.373-2.318-2.939-1.35M114 19.427c0 3.673.518 4.165 2.837 2.695 1.849-1.172 1.051-5.528-1.087-5.935-1.402-.267-1.75.376-1.75 3.24m47.573-1.757c-.585 1.524.828 3.277 2.673 3.315.41.008-.152 2.377-1.25 5.265-2.431 6.398-2.445 5.955.176 5.57 1.551-.229 2.575-1.535 3.583-4.57 1.118-3.366 1.892-4.25 3.721-4.25 2.494 0 4.282-2.79 2.257-3.521C169.137 18.18 162.714 16 162.481 16c-.147 0-.555.752-.908 1.67m-74.073.508c-1.1.614-2.15 1.238-2.334 1.387-.268.216 3.693 12.205 4.365 13.209.1.15.936-.016 1.856-.369 1.142-.438 1.47-1.281 1.033-2.657-.611-1.925-.535-1.942 1.693-.382 2.545 1.783 5.887 2.183 5.887.705 0-.51-.776-1.704-1.723-2.652-.992-.991-1.603-2.875-1.439-4.438.517-4.924-4.501-7.505-9.338-4.803M138 18c0 .55.477 1 1.059 1s.781-.45.441-1-.816-1-1.059-1-.441.45-.441 1m-47.823 4.553c.452 2.172 2.227 2.305 2.633.197.21-1.095-.28-1.75-1.31-1.75-.961 0-1.512.647-1.323 1.553m82.803 5.487c-2.957 5.858-3.137 7.989-.671 7.933 1.045-.023 6.736-11.248 6.703-13.223-.006-.413-.681-.75-1.498-.75s-2.857 2.718-4.534 6.04m-99.907-2.405c-3.383 4.3-2.594 8.527 2.04 10.923C80.437 39.311 86 35.847 86 29.777c0-6.485-8.853-9.322-12.927-4.142M180.2 27.2c-1.782 1.782-1.457 4.543.8 6.8 2.786 2.786 2.496 3.555-.581 1.539-1.419-.93-3.287-1.42-4.15-1.089-2.406.923 2.35 5.55 5.705 5.55 5.092 0 6.502-3.8 2.852-7.686-1.196-1.272-1.701-2.314-1.123-2.314.579 0 1.59.648 2.248 1.441 1.371 1.652 4.049.997 4.049-.991 0-3.299-7.323-5.727-9.8-3.25M75.309 28.636c-.827 2.156.95 4.864 3.191 4.864 2.241 0 4.018-2.708 3.191-4.864-.821-2.139-5.561-2.139-6.382 0M64.75 29.749c-2.027.461-2.127 1.128-.722 4.825 1.4 3.683.456 4.23-2.503 1.45-1.984-1.865-2.75-2.082-3.92-1.111-1.27 1.054-1.267 1.653.03 4.757l1.484 3.551-2.964-2.11C54.525 39.95 52.746 39 52.203 39c-1.322 0-2.492 3.186-1.439 3.92.458.319 2.934 2.055 5.504 3.857 4.083 2.865 4.929 3.117 6.714 2.002 1.123-.701 1.811-1.838 1.53-2.527-1.903-4.654-1.873-4.789.578-2.574 2.127 1.923 2.634 2.014 4.315.776 1.854-1.364 1.858-1.579.136-7.939-1.905-7.038-2.138-7.368-4.791-6.766m124.948 7.102c-4.138 5.268-4.485 6.081-3.086 7.242 1.338 1.11 1.862.937 3.46-1.142 2.074-2.699 2.553-1.988.83 1.231-.858 1.604-.753 2.395.48 3.628 1.436 1.436 1.802 1.366 4.097-.791 2.763-2.595 3.486-1.742.923 1.089-1.656 1.83-1.171 3.901.907 3.88.655-.006 2.954-2.551 5.109-5.655l3.918-5.642-2.319-1.878c-2.275-1.842-2.36-1.84-4.482.154-2.981 2.8-3.556 2.55-2.228-.969.978-2.592.854-3.281-.907-5.042l-2.039-2.04zm-75.448-3.189c-1.308.528-1.684 5.045-.645 7.75.332.867.985 1.341 1.451 1.054.465-.288 2.443-.583 4.395-.657 2.874-.108 3.549-.525 3.549-2.194 0-2.011.037-2.007 1.557.162C126.93 43.166 128 42.458 128 37.5c0-2.475-.45-4.5-1-4.5s-1 .745-1 1.655c0 1.54-.127 1.54-1.829 0-2.733-2.474-3.999-2.02-4.448 1.595l-.403 3.25-.16-3.25c-.159-3.23-1.529-3.952-4.91-2.588m14.943 3.588c.275 3.803.596 4.283 3.057 4.566 2.456.283 2.75-.002 2.75-2.668 0-1.641.273-3.696.607-4.566.485-1.265-.127-1.582-3.058-1.582h-3.664zm8.914-3.337c-.816.517-1.166 1.753-.844 2.984.302 1.155.134 2.358-.373 2.671-1.671 1.033.257 2.566 2.959 2.353 1.458-.114 3.412.12 4.343.52 2.691 1.158 5.305.2 5.345-1.96.021-1.091.371-2.523.778-3.182.445-.719-.095-1.646-1.351-2.318-2.613-1.399-5.337.485-4.627 3.199.262 1.001.068 1.82-.431 1.82-.934 0-1.289-1.458-.948-3.894.108-.766-.401-1.772-1.131-2.234-1.661-1.053-1.999-1.049-3.72.041m-31.387.782c-1.45.377-1.668 1.146-1.177 4.134l.605 3.671-2.172-3.25c-2.505-3.748-3.498-4.012-4.941-1.316-1.998 3.734-.678 9.533 1.404 6.165.306-.495 2.127-.754 4.047-.576 1.92.178 3.721-.049 4.003-.505.282-.457 1.412-.595 2.51-.308 1.788.467 1.93.168 1.359-2.844-.647-3.407-2.083-5.962-3.23-5.75-.346.064-1.429.324-2.408.579m48.215 4.976c-1.422 3.74-.8 5.774 1.88 6.156 2.915.415 5.185-1.445 5.185-4.249 0-4.852-5.392-6.307-7.065-1.907M94 40.191c0 2.144-.032 2.149-1.5.25-1.318-1.705-1.652-1.759-2.75-.441-.687.825-1.812 1.5-2.5 1.5-1.822 0-1.682 1.624.41 4.755 1.189 1.78 2.371 2.531 3.34 2.121.825-.348 2.513-.853 3.75-1.121 1.917-.416 2.25-1.137 2.25-4.872C97 39.154 96.605 38 95.5 38c-.877 0-1.5.91-1.5 2.191m63.583.675c-.431.697-.513 1.537-.183 1.867.895.895 1.871-.421 1.387-1.871-.338-1.016-.574-1.016-1.204.004m6.022 2.024c-1.747 1.824-2.37 3.137-1.687 3.559.595.368 1.535.389 2.089.047.554-.343 1.277.081 1.607.941.33.859 1.227 1.563 1.993 1.563.984 0 1.393-1.32 1.393-4.5 0-5.369-1.395-5.785-5.395-1.61m7.34-.64c-.492 2.254-.393 8.75.134 8.75 1.532 0 6.924-5.88 5.947-6.484-.564-.349-1.429-.385-1.921-.081-.493.305-1.153-.119-1.469-.941-.469-1.223-2.491-2.158-2.691-1.244m-90.278 1.417c-1.332 1.331-.722 8.333.726 8.333.766 0 1.664-.706 1.995-1.569.4-1.043 1.275-1.355 2.607-.933 2.788.885 2.612-1.58-.309-4.324-2.378-2.233-3.851-2.676-5.019-1.507m29.307 12.273c-26.972 5.692-48.395 22.571-60.668 47.8-4.22 8.675-4.672 9.238-6.265 7.797-1.56-1.411-1.878-1.375-3.483.398-1.435 1.587-2.112 1.736-3.616.796-2.412-1.506-3.694-.166-2.173 2.271 1.003 1.605.848 2.153-.969 3.425-2.098 1.47-2.108 1.575-.343 3.525 1.344 1.485 1.537 2.351.738 3.313-.645.778-.732 1.867-.214 2.704.722 1.168 1.133 1.181 2.462.079 2.651-2.201 5.557 1.265 5.557 6.626 0 4.129-.132 4.331-2.443 3.751-3.925-.985-5.029.444-2.458 3.18l2.25 2.395h-3.675c-4.675 0-4.682 1.435-.017 3.828l3.657 1.876-2.657.667c-3.954.993-3.43 3.629.721 3.629 4.263 0 5.055 1 7.124 8.998 5.516 21.322 19.677 40.492 38.644 52.314 4.113 2.564 8.969 5.181 10.789 5.815 3.296 1.149 3.307 1.177 2.676 6.264-.349 2.81-.919 7.697-1.265 10.859l-.631 5.75h65.839l-.755-10.189c-.415-5.603-.652-10.265-.527-10.359.125-.095 4.304-2.261 9.286-4.814 10.788-5.529 20.364-13.187 28.009-22.4 6.073-7.318 14.629-23.749 16.527-31.738 1.528-6.433 3.367-8.5 7.561-8.5 4.158 0 4.54-2.425.595-3.774l-2.75-.94 3.75-1.592c4.765-2.023 4.808-3.694.095-3.694-3.387 0-3.545-.128-2.152-1.75 3.405-3.964 3.333-4.597-.453-3.983l-3.57.58-.386-6.174c-.344-5.492-.133-6.375 1.914-8.006 2.09-1.665 2.167-2.022.839-3.917-1.293-1.847-1.275-2.221.154-3.266 1.933-1.413.784-3.88-1.413-3.037-2.157.827-5.536-3.19-8.196-9.746-5.637-13.887-21.751-32.309-35.115-40.141-19.375-11.356-41.685-15.117-62.993-10.62m96.543 10.041c-1.357 1.499-2.153 1.736-3.125.929-1.886-1.565-3.824-.136-2.303 1.698.936 1.127.808 1.849-.606 3.411-1.724 1.905-1.724 2.057 0 3.962 1.481 1.637 1.57 2.25.513 3.524-1.701 2.049-.391 3.223 1.959 1.755 1.552-.969 2.111-.795 3.336 1.038 1.447 2.165 1.506 2.171 3.571.314 1.714-1.541 2.377-1.658 3.607-.637 1.234 1.024 1.626.94 2.165-.463.362-.943.131-2.039-.512-2.437-.821-.507-.565-1.269.863-2.561 1.891-1.712 1.923-2.006.457-4.244-1.18-1.8-1.296-2.742-.46-3.748 1.442-1.738-.648-3.256-2.262-1.642-.808.808-1.682.565-3.244-.903l-2.138-2.008zM30 78.149c-1.375 1.145-3.359 2.685-4.409 3.422-1.588 1.115-1.694 1.6-.628 2.885.985 1.186 1.01 1.871.111 2.955-1.332 1.605.196 3.158 2.006 2.04.594-.367 1.764.31 2.601 1.504 1.385 1.977 1.675 2.033 3.234.622 1.245-1.126 2.013-1.249 2.812-.45 1.455 1.455 3.343.218 2.604-1.707-.33-.859.225-2.106 1.28-2.878 1.815-1.327 1.814-1.415-.029-3.452-1.046-1.155-1.375-2.09-.737-2.09.635 0 1.155-.727 1.155-1.617 0-1.14-.607-1.457-2.061-1.077-1.262.33-2.273-.013-2.607-.884-.75-1.955-2.379-1.733-5.332.727m92.4 81.013c-1.313 2.125 3.67 5.088 7.508 4.466 3.876-.63 6.676-2.874 5.651-4.532-.912-1.476-12.241-1.419-13.159.066m-85.905 51.843-4.93 5.005 2.163 2.163c1.694 1.693 2.466 1.911 3.559 1.003 1.815-1.506 3.043-.278 1.537 1.537-.907 1.092-.696 1.86.973 3.528 2.039 2.039 2.217 2.056 4.068.381 1.265-1.144 2.165-1.383 2.595-.687 1.12 1.812 3.54 1.173 3.54-.935 0-1.1-.528-2-1.174-2-.646 0-.107-1.136 1.197-2.525l2.372-2.524-2.143-2.143c-1.806-1.807-2.391-1.938-3.722-.833-2.03 1.685-3.213.553-1.534-1.47 1.057-1.274.968-1.887-.513-3.524-.986-1.089-2.078-1.981-2.426-1.981-.348 0-2.851 2.252-5.562 5.005m163.723-.982c-1.025 1.641-1.64 1.821-3.256.957-1.579-.845-2.122-.726-2.623.578-.352.917-.031 2.014.726 2.482 1.099.679.996 1.235-.542 2.934-1.866 2.063-1.862 2.131.236 4.229 1.797 1.797 2.38 1.926 3.711.822 1.984-1.647 3.23-.573 1.606 1.384-.986 1.187-.723 1.776 1.422 3.182 2.529 1.657 2.713 1.642 4.734-.379 1.772-1.771 1.897-2.352.793-3.682-1.647-1.984-.573-3.23 1.384-1.606 1.187.986 1.773.728 3.16-1.388.936-1.429 1.528-2.719 1.316-2.865-.212-.147-2.697-2.158-5.524-4.469-2.826-2.311-5.305-4.202-5.509-4.202-.204 0-.939.91-1.634 2.023"/><path fill="#1976D2" fill-opacity=".284" fill-rule="evenodd" d="M115.142 33.782c-2.046.334-2.278.789-1.75 3.427.334 1.672.608 3.465.608 3.982 0 .518 1.139.799 2.531.625 1.392-.174 2.418-.766 2.28-1.316-.139-.55-.94-.869-1.781-.708-1.295.247-1.31.144-.1-.67 1.423-.958 2.272-4.972 1.156-5.466-.322-.142-1.647-.085-2.944.126m4.958 1.468c.055 1.237.444 3.375.864 4.75l.765 2.5 1.036-2.5c.899-2.173 1.127-2.271 1.742-.75C125.866 42.612 128 41.237 128 37c0-4.114-1.958-5.784-2.052-1.75l-.053 2.25-1.569-2.25c-.864-1.237-2.19-2.25-2.948-2.25-.792 0-1.336.957-1.278 2.25m9.653-1.5c-.201.413-.487 2.212-.635 4-.25 3.02-.052 3.25 2.807 3.25 3.306 0 4.201-1.559 1.325-2.311-1.667-.435-1.667-.463 0-.573.963-.064 1.75-.533 1.75-1.043 0-.509-.787-1.132-1.75-1.384-1.667-.435-1.667-.463 0-.573.963-.064 1.75-.566 1.75-1.116 0-1.153-4.699-1.377-5.247-.25m7.619 1.723c-.34.887-.342 1.89-.004 2.228.338.338.129 1.2-.465 1.916-.829.999-.454 1.458 1.616 1.977 3.147.79 4.442-.657 4.038-4.513-.317-3.033-4.179-4.23-5.185-1.608m-31.357 2.211c.021 3.739.936 4.815 4.235 4.973 2.703.129 3.451-.623 2.03-2.044-.396-.396-.733-1.708-.75-2.916-.022-1.644-.722-2.277-2.78-2.513-2.427-.28-2.748.014-2.735 2.5m38.357-1.211c-.34.887-.342 1.89-.004 2.228.338.338.129 1.2-.465 1.916-.827.996-.486 1.449 1.452 1.936 3.517.883 4.655-.123 4.357-3.852-.196-2.453-.778-3.276-2.489-3.521-1.353-.194-2.476.315-2.851 1.293m-44.62.119C98.447 38.705 97.8 45 98.889 45c.611 0 1.111-.499 1.111-1.108 0-.683.96-.868 2.5-.481 1.684.422 2.498.213 2.495-.642-.007-1.872-4.576-7.256-5.243-6.177M108 38.059c0 .582.45.781 1 .441s1-.816 1-1.059-.45-.441-1-.441-1 .477-1 1.059m47.098 2.09c-1.482 4.252-1.425 4.532 1.064 5.183 4.917 1.286 7.696-3.341 4.009-6.677-2.654-2.402-3.836-2.054-5.073 1.494m-61.128.518c-.026 2.408-.184 2.57-1.05 1.083-1.42-2.437-2.914-2.184-2.952.5-.03 2.144-.098 2.163-1.433.4-2.402-3.171-3.82-.859-1.485 2.42 2.27 3.188 4.95 3.896 4.95 1.308 0-1.349.26-1.407 1.542-.343 2.189 1.817 3.677-.034 3.281-4.081-.409-4.175-2.811-5.259-2.853-1.287M157 41.5c0 .917.484 1.505 1.075 1.308.591-.197 1.075-.785 1.075-1.308s-.484-1.111-1.075-1.308c-.591-.197-1.075.391-1.075 1.308m7.082 1.433c-3.277 2.675-3.084 4.772.319 3.466.952-.365 1.827.032 2.198.997.338.882 1.017 1.604 1.508 1.604 1.087 0 1.204-7.69.126-8.356-.421-.26-2.289.77-4.151 2.289M81 47.5c0 2.475.45 4.5 1 4.5s1-.703 1-1.563c0-.889.754-1.486 1.75-1.385 3.241.33 3.394-.042 1.25-3.052-3.182-4.468-5-3.923-5 1.5m90.261-2.611c.272 1.039.129 2.48-.318 3.203-1.622 2.624.299 2.939 2.782.456 1.401-1.401 2.963-2.548 3.47-2.548.508 0 .634-.468.28-1.041-.354-.572-1.505-.767-2.559-.432-1.071.34-1.916.137-1.916-.46 0-.587-.502-1.067-1.117-1.067-.614 0-.894.85-.622 1.889M95.287 61.026c-9.791 2.153-29.002 17.111-37.786 29.421C53.083 96.637 46 110.356 46 112.722c0 1.77-1.936 1.607-2.638-.222-.739-1.926-2.768-1.92-4.372.012-.975 1.175-1.57 1.251-2.665.343-1.078-.895-1.692-.888-2.609.029-.932.932-.876 1.399.253 2.097 1.246.77 1.21 1.164-.259 2.787-2.107 2.328-2.156 3.617-.198 5.242 1.124.933 1.231 1.595.414 2.579-1.543 1.859-.179 3.866 1.615 2.377 1.863-1.547 6.633 1.827 6.057 4.284-.234.997.163 1.75.923 1.75 1.302 0 4.896 3.906 5.798 6.3.3.798.944.559 1.922-.712.932-1.213 2.095-1.673 3.177-1.258 1.392.534 1.588 1.444 1.065 4.936-.77 5.135-1.393 4.483 15.408 16.138 13.359 9.267 17.881 10.855 16.65 5.846-.372-1.512-2.221-4.344-4.108-6.292-2.662-2.746-3.433-4.379-3.433-7.265 0-2.048-.725-6.332-1.612-9.521-1.601-5.76-1.595-5.83 1-10.951 1.437-2.835 2.612-5.979 2.612-6.988 0-1.008.513-2.346 1.139-2.972 1.219-1.219 3.721-13.671 3.808-18.953L86 99.116l-4.25 2.43C73.825 106.077 68 104.185 68 97.079c0-7.043 9.507-16.421 17.5-17.263 3.632-.383 4.616-1.53 3.408-3.977a503.06 503.06 0 0 0-1.942-3.88c-1.367-2.699-.274-4.459 1.735-2.792.837.695 1.856 2.163 2.262 3.263.651 1.759.959 1.536 2.569-1.856 1.006-2.12 3.323-4.736 5.148-5.813 1.826-1.077 3.32-2.123 3.32-2.325 0-1.18-3.968-2.014-6.713-1.41M113 66.059c0 1.391-.691 1.941-2.441 1.941-1.343 0-2.719.45-3.059 1-.34.55-1.379 1.015-2.309 1.033-2.729.054-6.191 3.58-6.191 6.305 0 1.648-1.122 3.402-3.25 5.078l-3.25 2.562 3.211.011c4.114.014 7.289 3.317 7.289 7.583 0 2.283.535 3.335 1.876 3.685 2.551.668 3.233 6.965 1.231 11.381-1.186 2.616-2.126 3.362-4.239 3.362-5.611 0-10.692 6.874-12.323 16.675-.819 4.916.513 8.016 4.016 9.348 1.667.634 2.439 1.701 2.439 3.37 0 1.344.261 3.122.579 3.952.444 1.158.037 1.383-1.75.968l-2.329-.541 2.334 1.73c1.677 1.242 2.029 2.035 1.25 2.814-1.818 1.818-1.209 2.779.919 1.45 1.802-1.125 1.949-2.007 1.469-8.759-.528-7.4-.493-7.539 2.417-9.768l2.953-2.26 4.387 2.731 4.388 2.732-2.999 1.529c-1.649.841-3.191 2.136-3.425 2.878-.309.979.292.879 2.189-.363 1.568-1.028 3.805-1.539 5.592-1.277 2.383.35 2.758.173 1.879-.886-.871-1.05-.444-1.323 2.071-1.323 2.443 0 3.548-.66 4.823-2.882l1.654-2.882 2.582 1.91c5.501 4.067 13.017 3.334 13.017-1.268 0-2.016 1.482-2.526 2.509-.864 1.452 2.35 8.864 5.187 12.155 4.653l3.336-.541v7.696c0 6.614.281 7.873 2 8.946 2.125 1.327 2.732.364.916-1.452-.779-.779-.427-1.572 1.25-2.814l2.334-1.73-2.25.52c-1.86.431-2.25.099-2.25-1.917 0-1.341.681-2.699 1.513-3.018 2.744-1.054 4.487 1.604 4.487 6.842 0 4.183-.472 5.427-3.031 7.986-2.007 2.007-3.69 2.86-4.98 2.522-1.424-.372-2.509.398-4.032 2.863-1.147 1.855-4.144 5.185-6.661 7.401L142.718 171l5.391-.044c2.965-.025 9.891-.885 15.391-1.912s10.45-1.512 11-1.078c.563.445 5.426-2.322 11.139-6.338 17.461-12.276 16.481-11.241 15.762-16.66-.769-5.801.932-7.49 3.906-3.877 1.569 1.906 2.091 2.098 2.501.919.286-.82 1.795-2.767 3.355-4.327 2.135-2.135 2.837-3.791 2.837-6.693 0-2.977.456-4 2-4.49 2.239-.711 2.469-1.755.993-4.512-.777-1.452-.606-2.107.75-2.872 1.375-.776 1.494-1.257.549-2.211-.95-.96-1.536-.947-2.75.06-.848.704-1.542.86-1.542.346s-.97-1.975-2.156-3.248c-1.186-1.273-3.835-5.787-5.887-10.03-2.053-4.244-4.978-9.69-6.501-12.103-2.439-3.863-2.857-4.151-3.505-2.408-.686 1.843-.786 1.856-1.464.194-1.296-3.179-5.742-7.555-7.133-7.022-3.087 1.185-.615 6.023 3.896 7.623.963.341 1.75 1.486 1.75 2.545 0 1.058.787 2.274 1.75 2.702 1.387.617 1.069.898-1.539 1.357-3.526.621-4.447 2.634-1.143 2.497 1.093-.046 1.815.404 1.606 1-.21.595-1.068.962-1.908.816-1.636-.286-3.099 4.455-1.932 6.26 2.128 3.294 2.883 7.782 1.937 11.511-1.196 4.71-2.322 4.377-3.803-1.124-.808-3.001-.787-4.395.085-5.445 1.86-2.241.342-4.752-2.45-4.051-2.524.633-2.283 1.115-4.228-8.464-.344-1.694-1.244-3.317-2-3.607-1.775-.682-1.783-2.314-.011-2.314.928 0 1.363-1.301 1.363-4.077 0-3.412-.401-4.229-2.464-5.013-1.355-.515-3.226-1.877-4.156-3.026-1.53-1.889-1.818-1.937-3.013-.497-1.206 1.453-1.572 1.444-4.198-.107-2.206-1.304-3.151-1.425-4.053-.523-.903.903-.766 1.335.59 1.856.972.372 2.826 1.737 4.121 3.032 1.295 1.295 3.501 2.355 4.901 2.355 2.984 0 3.219.768.795 2.608-2.564 1.946-5.25 1.714-5.25-.453 0-1.97-2.385-4.455-5.25-5.472-.963-.341-1.75-1.32-1.75-2.176 0-.856-1.142-1.991-2.537-2.521-2.407-.915-2.464-1.106-1.105-3.699 1.312-2.504 1.256-2.887-.654-4.544-1.21-1.049-2.742-1.526-3.646-1.135-2.588 1.121-7.058 1.669-7.058.866 0-.415.748-1.301 1.662-1.969 2.389-1.747 1.019-4.178-2.658-4.718-4.103-.602-11.795 1.953-13.073 4.343C130.614 71.59 129 71.518 129 69c0-1.1-.637-2-1.417-2-.779 0-1.587-.512-1.796-1.139-.214-.641-3.088-1.27-6.583-1.441-5.579-.272-6.204-.107-6.204 1.639M29.5 79.094c-4.584 3.437-5.139 4.431-3.546 6.351.785.945.814 1.58.095 2.025-1.781 1.1-1.156 2.699.81 2.075 1.067-.339 2.39.05 3.105.911.946 1.14 1.718 1.25 3.205.454 1.428-.765 2.374-.704 3.492.224 1.302 1.08 1.481.962 1.186-.777-.191-1.127.271-2.794 1.026-3.703 1.1-1.327 1.125-1.951.127-3.154-.955-1.15-.972-1.829-.074-2.911.737-.888.808-1.635.192-2.016-.539-.333-1.3-.087-1.692.547-.487.787-1.221.491-2.319-.936L33.5 76.095zm81.424 18.656-2.424 2.75 2.75-2.424c2.57-2.266 3.209-3.076 2.424-3.076-.179 0-1.416 1.237-2.75 2.75M140 136c-1.149.742-.784.973 1.559.985 1.682.008 3.932.676 5 1.483 3.11 2.353 3.999 1.755 1.441-.968-2.443-2.601-5.43-3.161-8-1.5m-31.443 5.223c-2.068 2.951-1.963 4.991.411 8.01 1.51 1.919 2.616 2.385 4.75 2 4.075-.735 5.282-2.073 5.282-5.855 0-2.711-.395-3.378-2-3.378-1.111 0-2-.667-2-1.5 0-2.349-4.658-1.827-6.443.723m30.293-.52c-2.405 2.796-2.896 5.102-1.663 7.809.906 1.987 1.866 2.488 4.774 2.488 2.001 0 4.179-.54 4.839-1.2 1.788-1.788 1.534-6.8-.344-6.8-.915 0-1.424-.712-1.25-1.75.417-2.483-4.339-2.893-6.356-.547M43 159.335c0 2.638 4.225 14.306 7.755 21.416 4.521 9.105 13.305 20.232 21.166 26.812 5.996 5.019 18.5 12.638 22.829 13.91 1.921.565 2.25.286 2.25-1.906 0-1.412.45-2.567 1-2.567s1 .9 1 2c0 1.556.667 2 3 2 2.66 0 3 .337 3 2.969 0 2.132.394 2.817 1.399 2.431.769-.295 1.714-.025 2.1.599.415.672-.156 1.36-1.398 1.685-1.393.364-2.101 1.352-2.101 2.933 0 1.981-.506 2.383-3 2.383-1.945 0-3-.507-3-1.441 0-.793-.451-1.72-1.002-2.06-1.232-.762-2.601 2.671-3.526 8.842L93.773 244l27.363-.136c15.05-.075 26.352-.331 25.114-.57-2.787-.537-2.978-2.294-.25-2.294 1.556 0 2-.667 2-3 0-2.533.389-3 2.5-3 1.867 0 2.5-.528 2.5-2.083 0-1.223.517-1.911 1.25-1.667.688.229 1.25 1.017 1.25 1.75 0 .733.605 1.535 1.345 1.782 1.051.35 1.269-.879 1-5.647l-.345-6.095 5.76-2.496c17.056-7.39 32.237-21.622 41.089-38.52 3.585-6.842 8.651-20.167 8.651-22.752 0-.284-4.397 3.7-9.772 8.855S190.647 179.3 187.213 181.5c-5.561 3.564-6.213 4.322-5.978 6.952.243 2.7-.158 3.11-4.713 4.817-2.738 1.026-8.736 2.817-13.329 3.98-7.167 1.814-8.495 1.911-9.366.683-.767-1.081-.835-.942-.28.568.405 1.1.938 3.169 1.186 4.598.434 2.508.248 2.616-5.392 3.107-3.212.28-15.958.385-28.323.233l-22.482-.276.301-3.496.302-3.495-5.82-1.195c-3.2-.657-9.36-2.307-13.687-3.666l-7.868-2.472.617-4.669.617-4.669-4.749-2.975c-2.612-1.636-9.066-7.149-14.343-12.25-5.277-5.101-9.89-9.275-10.25-9.275-.361 0-.656.601-.656 1.335m56.75 3.908c-2.709 1.411-3.75 2.603-3.75 4.294 0 1.988.64 2.436 4.25 2.972 2.338.348 6.313.488 8.834.311l4.584-.32-5.084-4.605-5.084-4.605zM120 173.55c0 2.436 2.704 3.45 9.2 3.45 3.74 0 6.8-.413 6.8-.918 0-.505.23-1.518.511-2.25.401-1.045-1.323-1.332-8-1.332-5.278 0-8.511.399-8.511 1.05m-83.518 37.468-4.917 4.992 2.335 2.245c1.622 1.56 2.476 1.864 2.8.995.509-1.365 3.3-1.745 3.3-.45 0 .44-.545 1.345-1.211 2.011-.948.948-.739 1.684.965 3.387 2.112 2.113 2.234 2.123 4.192.351 1.591-1.44 2.318-1.575 3.446-.638 1.805 1.497 3.397-.522 1.728-2.191-.808-.808-.567-1.679.893-3.233l1.998-2.128-2.4-2.255c-1.535-1.442-2.639-1.867-3.065-1.179-.365.591-1.087 1.075-1.605 1.075-1.294 0-1.192-2.75.118-3.186.583-.195-.002-1.351-1.3-2.571l-2.36-2.217zm163.526-.528c-.783.943-2.113 1.271-3.622.892-2.544-.638-3.127.477-1.237 2.367.865.865.743 1.766-.491 3.65-1.558 2.379-1.531 2.577.561 4.042 1.453 1.017 2.536 1.204 3.19.55 1.719-1.719 2.83-1.078 2.235 1.291-.414 1.648.025 2.655 1.58 3.626 1.911 1.193 2.359 1.091 3.979-.911 1.696-2.094 1.707-2.342.16-3.473-1.218-.891-1.344-1.417-.471-1.957.658-.407 1.738-.294 2.402.249.847.695 1.724.296 2.945-1.337 1.722-2.303 1.688-2.367-3.381-6.403-5.728-4.561-6.107-4.686-7.85-2.586M125 219c0 1.556-.667 2-3 2-2.66 0-3 .337-3 2.969 0 2.132-.394 2.817-1.399 2.431-.769-.295-1.714-.025-2.1.599-.415.672.156 1.36 1.398 1.685 1.393.364 2.101 1.352 2.101 2.933 0 1.981.506 2.383 3 2.383 2.333 0 3 .444 3 2 0 1.1.45 2 1 2s1-.9 1-2c0-1.556.667-2 3-2 2.494 0 3-.402 3-2.383 0-1.581.708-2.569 2.101-2.933 1.155-.302 1.816-1.01 1.468-1.573-.348-.563-1.294-.77-2.101-.46-1.097.42-1.468-.223-1.468-2.544 0-2.786-.31-3.107-3-3.107-2.333 0-3-.444-3-2 0-1.1-.45-2-1-2s-1 .9-1 2"/><path fill="#1976D2" fill-opacity=".702" fill-rule="evenodd" d="M121.136 37.076c.075 2.433.331 3.411.57 2.174.535-2.779 1.437-2.853 3.062-.25 1.962 3.142 3.232 2.356 3.232-2 0-2.2-.45-4-1-4s-1 .978-1 2.174v2.175L123.5 35l-2.5-2.349zm8.864.063c0 3.561.214 3.856 2.75 3.798l2.75-.064-2.5-1.089c-2.06-.897-2.192-1.163-.75-1.51.963-.231 1.75-.864 1.75-1.406 0-.542-.419-.727-.931-.411a1.106 1.106 0 0 1-1.515-.369c-.321-.52.436-1.103 1.681-1.296 2.082-.324 2.043-.399-.485-.933-2.626-.555-2.75-.407-2.75 3.28m-16.136-2.67c-.258.259-.284 2.059-.057 4 .42 3.599 1.517 4.261 4.193 2.531 1.282-.828 1.246-.972-.25-.985-2.015-.017-2.352-1.605-.5-2.353.688-.277.35-.554-.75-.615-1.974-.109-1.974-.13-.059-1.579 1.913-1.446 1.912-1.468-.083-1.468-1.114 0-2.236.211-2.494.469m23.536.693c-.407.658.266 1.959 1.552 3l2.27 1.838-2.361.03c-2.092.027-2.161.147-.603 1.055.967.563 2.204.747 2.75.41 1.502-.928 1.188-3.483-.508-4.133-2.322-.891-1.77-2.245.656-1.611 1.478.387 1.932.2 1.441-.593-.925-1.498-4.271-1.495-5.197.004m-30.927 1.088c-.255.688-.054 2.6.446 4.25s.948 2.407.995 1.683c.052-.801.791-1.094 1.883-.748 1.373.436 1.784.041 1.743-1.682-.069-2.915-1.28-4.753-3.13-4.753-.81 0-1.681.563-1.937 1.25m38.87.298c-.339.884.21 2.203 1.282 3.074 1.795 1.461 1.776 1.505-.432 1.031-1.487-.319-2.169-.079-1.917.676.631 1.896 3.674 1.966 4.39.1.419-1.092-.016-2.212-1.195-3.074-1.761-1.288-1.742-1.355.397-1.355 1.245 0 1.974-.447 1.632-1-.944-1.527-3.489-1.191-4.157.548M108 37.441c0 .857.45 1.559 1 1.559s1-.423 1-.941-.45-1.219-1-1.559c-.55-.34-1 .084-1 .941m-8.34.309c-.467.763-.972 5.076-.771 6.571.061.452.834.099 1.717-.784 1.24-1.24 1.924-1.342 3-.449 1.88 1.56 1.756.333-.322-3.184-1.724-2.919-2.775-3.544-3.624-2.154m56.331 1.775c-1.683 4.424-1.278 5.641 1.759 5.291 3.603-.414 4.497-5.078 1.3-6.789-1.79-.958-2.203-.756-3.059 1.498M93.968 41.25c-.029 2.084-.13 2.121-1.36.5-1.767-2.328-2.608-2.208-2.608.372 0 1.789-.24 1.924-1.524.858-2.358-1.957-2.885-.409-.824 2.42 2.3 3.157 4.338 3.32 4.378.35.028-2.027.133-2.074 1.062-.479.567.974 1.453 1.51 1.969 1.191C96.322 45.683 96.267 39 95 39c-.55 0-1.014 1.013-1.032 2.25M100 40c0 .55.45 1 1 1s1-.45 1-1-.45-1-1-1-1 .45-1 1m56.711.999c-.608 2.323.984 3.706 2.509 2.181 1.153-1.153.376-4.18-1.072-4.18-.503 0-1.15.9-1.437 1.999m7.463 2.315c-2.798 2.98-2.739 3.517.326 2.931 1.923-.368 2.523-.048 2.6 1.388.074 1.395.302 1.234.9-.633 1.98-6.183.164-7.932-3.826-3.686m-82.507.353c-.999.999-.804 7.333.226 7.333.491 0 1.164-.706 1.495-1.569.423-1.102 1.273-1.364 2.857-.881 2.073.632 2.018.436-.682-2.431-3.322-3.528-3.014-3.334-3.896-2.452m89.668 3.583c-.146 3.76-.014 4.032 1.169 2.413.734-1.003 2.158-2.486 3.165-3.296 1.728-1.388 1.705-1.436-.419-.851-1.64.451-2.25.194-2.25-.949 0-.862-.338-1.564-.75-1.561-.412.003-.824 1.913-.915 4.244M117.9 93.991c-4.372 2.311-9.393 7.861-11.351 12.546-.822 1.967-2.16 3.463-3.097 3.463-6.055 0-11.925 6.875-13.083 15.324-.885 6.454.118 9.676 3.009 9.676 2.029 0 2.475.7 3.35 5.25l1.009 5.25.132-6.131c.122-5.732.353-6.301 3.53-8.724 3.103-2.367 3.517-2.451 4.75-.96.743.897 3.151 2.451 5.351 3.452 6.972 3.171 11.5 2.066 11.5-2.807v-2.27l3.708 2.516c2.878 1.953 4.724 2.45 8.25 2.22 4.383-.286 4.537-.405 4.411-3.399l-.132-3.102 5.132 3.455c4.491 3.023 5.723 3.397 9.881 2.999l4.75-.455.145 5.603.145 5.603 1.017-5.75c.564-3.187 1.544-5.75 2.2-5.75 1.956 0 4.493-3.489 4.493-6.18 0-3.701-1.936-8.862-4.741-12.638-2.321-3.124-8.957-8.556-11.574-9.474-.819-.287-.644-1.026.565-2.391 2.177-2.456 2.249-4.912.168-5.71-3.789-1.454-14.047-.506-19.705 1.82-5.436 2.235-5.75 2.264-5.182.476.969-3.052-.42-5.908-2.848-5.859-1.201.025-3.803.901-5.783 1.947m-78.222 18.76c-1.378 1.378-2.075 1.482-3.586.538-2.26-1.411-3.521-.511-1.945 1.388.861 1.037.703 1.831-.664 3.342-1.725 1.905-1.723 2.058.038 4.005 1.404 1.551 1.557 2.298.655 3.2-.647.647-1.176 1.536-1.176 1.976 0 1.298 2.794.913 3.272-.45.286-.816 1.149-.385 2.488 1.241 2.015 2.45 2.084 2.46 4.126.612 1.718-1.555 2.343-1.658 3.619-.599 2.028 1.683 3.229.401 1.787-1.907-.907-1.454-.744-2.201.824-3.768 1.94-1.94 1.939-1.969-.024-3.746-1.611-1.458-1.764-2.135-.823-3.641 1.46-2.339.28-3.642-1.764-1.946-1.268 1.053-1.86.993-3.33-.338-1.648-1.491-1.92-1.484-3.497.093m169.12 1.621c-1.094.822-1.499 2.055-1.133 3.453.41 1.571.119 2.175-1.048 2.175-.89 0-1.617-.45-1.617-1 0-1.492-2.583-1.207-3.947.436-.919 1.107-.921 1.942-.009 3.647.977 1.825.898 2.37-.451 3.125-2.143 1.199-.968 3.046 1.449 2.279 1.23-.391 2.293.076 3.093 1.357 1.006 1.612 1.624 1.767 3.542.893 2.592-1.18 2.827-1.833 1.236-3.424-.783-.783-.73-1.308.188-1.875.77-.476 1.67-.163 2.271.789.885 1.405 1.244 1.415 3.255.098 1.992-1.306 2.12-1.787 1.078-4.073-.923-2.026-.911-2.683.057-3.006 2.075-.692 1.378-2.516-.749-1.96-1.328.348-2.573-.262-3.75-1.836-1.498-2.003-2.019-2.165-3.465-1.078M109.34 136.75c-1.035.963-1.445 1.412-.911 1 .534-.412 2.344-.757 4.021-.765 2.337-.012 2.699-.242 1.55-.985-2.057-1.33-2.501-1.258-4.66.75m31.673-.779c-1.208.764-1.114.917.5.813 1.093-.07 3.112.199 4.487.596 2.399.694 2.422.661.559-.828-2.226-1.78-3.448-1.908-5.546-.581m-31.358 4.858c-2.059 2.275-2.154 7.512-.166 9.162 2.468 2.049 8.373.407 9.111-2.533.823-3.281-.152-5.567-2.062-4.834-1.382.53-2.019-.576-1.656-2.874.236-1.498-3.614-.703-5.227 1.079m29.286.23c-1.412 1.412-1.962 3.062-1.75 5.25.27 2.784.801 3.313 4.173 4.145 3.308.817 4.064.681 5.25-.941 1.719-2.35 1.827-6.603.16-6.263-.675.137-1.381-.762-1.57-2-.438-2.87-3.491-2.963-6.263-.191M202.961 169c-4.696 4.675-11.298 10.3-14.671 12.5-5.345 3.486-6.176 4.45-6.462 7.5-.21 2.244.21 3.925 1.172 4.683 1.284 1.013.96 1.681-2.25 4.635-2.062 1.899-3.75 4.172-3.75 5.053 0 1.974-12.367 14.629-14.295 14.629-.767 0-2.21.9-3.205 2-2.272 2.51-1.89 2.498 4.123-.137 16.967-7.435 32.496-22.221 40.933-38.973 3.442-6.836 7.763-18.621 7.241-19.748-.163-.353-4.139 3.183-8.836 7.858M177 194c-.825.533-1.05.969-.5.969s1.675-.436 2.5-.969c.825-.533 1.05-.969.5-.969s-1.675.436-2.5.969m-12 4c-.901.582-1.025.975-.309.985.655.008 1.469-.435 1.809-.985.767-1.242.421-1.242-1.5 0m-95.25 7.277c3.95 4.364 24.551 16.755 25.793 15.513.18-.179.626-2.585.993-5.346l.665-5.02-7.743-1.301c-4.259-.716-10.827-2.307-14.596-3.535-6.468-2.109-6.754-2.126-5.112-.311m-32.753 6.226c-4.119 4.197-4.306 4.616-2.758 6.164 1.324 1.325 1.957 1.415 3.122.449 1.802-1.496 3.035.06 2.181 2.752-.342 1.077.07 2.395.986 3.155 1.307 1.085 1.841 1.037 3.159-.282 1.245-1.245 1.979-1.342 3.405-.452 2.312 1.444 3.597.246 1.912-1.784-1.058-1.275-.964-1.892.541-3.555 1.685-1.861 1.699-2.135.188-3.645-1.223-1.223-1.967-1.355-2.966-.526-.801.664-1.894.76-2.736.24-1.161-.717-1.177-1.138-.094-2.443 1.046-1.261 1.059-1.876.063-3.076-1.774-2.137-2.093-2-7.003 3.003M105 209.5c0 1.833.533 2.5 2 2.5 1.111 0 2 .667 2 1.5s-.889 1.5-2 1.5c-1.758 0-2 .667-2 5.5s.242 5.5 2 5.5c1.111 0 2 .667 2 1.5s-.889 1.5-2 1.5c-1.556 0-2 .667-2 3 0 2.667-.333 3-3 3-2.333 0-3-.444-3-2 0-1.1-.647-2-1.439-2-.963 0-1.641 1.569-2.052 4.75-.337 2.613-.778 5.556-.979 6.542-.328 1.61.357 1.763 6.723 1.5 4.76-.196 7.23-.724 7.522-1.608.24-.724-.511-1.564-1.67-1.867-1.397-.365-2.105-1.352-2.105-2.934 0-1.875.533-2.383 2.5-2.383 1.51 0 2.5.571 2.5 1.441 0 2.054 2.07 3.063 3.046 1.485.452-.732.6-1.689.329-2.128-.271-.439.884-.798 2.566-.798 2.706 0 3.059.333 3.059 2.889 0 2.137-.455 2.853-1.75 2.75-.963-.076-1.75.536-1.75 1.361 0 1.249 2.385 1.551 14.24 1.807 12.779.275 14.177.141 13.621-1.31-.425-1.107.05-1.792 1.509-2.173 1.833-.48 2.13-1.291 2.13-5.824 0-4.51-.302-5.346-2.101-5.816-2.251-.589-1.736-2.684.66-2.684.87 0 1.441-.99 1.441-2.5 0-2.111.467-2.5 3-2.5 1.945 0 3 .507 3 1.441 0 .793.451 1.72 1.002 2.06 1.852 1.145 3.131-4.742 2.438-11.215l-.673-6.286h-4.383c-4.01 0-4.384.214-4.384 2.5 0 1.833.533 2.5 2 2.5 1.1 0 2 .492 2 1.094 0 .601-.9 1.329-2 1.616-1.274.333-2 1.364-2 2.84 0 1.784-.632 2.39-2.75 2.634-1.976.227-2.667.808-2.456 2.066.174 1.038-.335 1.75-1.25 1.75-.849 0-1.544-.675-1.544-1.5 0-1-1-1.5-3-1.5-2.533 0-3 .389-3 2.5 0 1.833.533 2.5 2 2.5 1.111 0 2 .667 2 1.5s-.889 1.5-2 1.5c-1.556 0-2 .667-2 3 0 2.494-.402 3-2.383 3-1.582 0-2.569.708-2.934 2.105-.634 2.423-3.254 2.024-3.044-.463.099-1.176-.681-1.642-2.75-1.642-2.543 0-2.889-.359-2.889-3 0-2.333-.444-3-2-3-1.111 0-2-.667-2-1.5s.889-1.5 2-1.5c1.556 0 2-.667 2-3 0-2.494.402-3 2.383-3 1.543 0 2.568-.706 2.907-2 .287-1.1 1.057-2 1.71-2s1.423.9 1.71 2c.339 1.294 1.364 2 2.907 2 1.844 0 2.383-.539 2.383-2.383 0-1.543-.706-2.568-2-2.907-1.1-.287-2-1.015-2-1.616 0-.602.9-1.094 2-1.094 1.467 0 2-.667 2-2.5V207h-28zm95.185 1.576c-1.022 1.636-1.594 1.83-2.697.914-.77-.639-1.938-.83-2.596-.423-.862.532-.688 1.109.626 2.07 1.761 1.287 1.761 1.398-.004 3.347-1.757 1.942-1.758 2.089-.022 4.007 1.698 1.876 1.875 1.891 3.087.25 1.007-1.363 1.553-1.479 2.511-.533.93.916.947 1.543.071 2.598-.899 1.084-.712 1.79.849 3.203 1.101.997 2.127 1.627 2.279 1.402.152-.226.88-1.198 1.616-2.161 1.053-1.376 1.081-2.061.131-3.206-1.685-2.031-.401-3.81 1.871-2.594 1.865.998 4.134-.347 4.05-2.4-.036-.893-9.102-8.55-10.124-8.55-.193 0-.935.934-1.648 2.076"/></svg>